<svg width="250" height="118" viewBox="0 0 250 118" fill="none" xmlns="http://www.w3.org/2000/svg">
<path d="M173.797 87.2272H167.959V80.7236H173.797V77.9854C173.797 74.746 174.814 72.1435 176.853 70.1805C178.889 68.2203 181.83 67.2374 185.677 67.2374C186.41 67.2374 187.463 67.2845 188.835 67.3758C189.752 67.4672 190.416 67.5115 190.83 67.5115V74.7682C189.682 74.6325 188.491 74.5633 187.255 74.5633C185.927 74.5633 184.977 74.8706 184.408 75.488C183.833 76.1027 183.547 77.1409 183.547 78.6V80.7236H190.28V87.2272H183.547V116.115H173.797V87.2272Z" fill="#2B2C2D"/>
<path d="M64.602 116.116H74.3541V80.7242H64.602V116.116Z" fill="#2B2C2D"/>
<path d="M64.602 75.2479H74.354V67.2381H64.602V75.2479Z" fill="#2B2C2D"/>
<path d="M26.4871 93.1833C25.8454 89.1216 23.4428 87.0894 19.2765 87.0894C17.8099 87.0894 16.5294 87.4328 15.4295 88.1166C14.3324 88.8005 13.4602 89.7031 12.8214 90.8216C12.1798 91.9401 11.7104 93.1722 11.4131 94.5178C11.1132 95.8633 10.9659 97.2228 10.9659 98.5905C10.9659 99.961 11.1132 101.295 11.4131 102.597C11.7104 103.895 12.1686 105.083 12.7853 106.157C13.4047 107.229 14.2407 108.095 15.2934 108.757C16.3461 109.422 17.6044 109.751 19.0709 109.751C21.268 109.751 23.029 109.111 24.3567 107.835C25.6843 106.556 26.5093 104.798 26.8287 102.561H36.2391C35.642 107.218 33.8227 110.8 30.7784 113.309C27.7342 115.82 23.8539 117.074 19.1376 117.074C16.5294 117.074 14.113 116.628 11.8937 115.737C9.6716 114.848 7.76063 113.594 6.15795 111.971C4.55529 110.355 3.33038 108.439 2.48323 106.224C1.63606 104.012 1.21387 101.581 1.21387 98.9338C1.21387 96.1956 1.61384 93.6512 2.41656 91.3006C3.2165 88.95 4.39697 86.9095 5.95242 85.1735C7.50787 83.4403 9.42161 82.1058 11.6881 81.17C13.9546 80.2342 16.5044 79.7663 19.3459 79.7663C23.8317 79.7663 27.6648 80.9292 30.8479 83.2576C34.031 85.5833 35.7586 88.8946 36.0336 93.1833H26.4871Z" fill="#2B2C2D"/>
<path d="M48.9445 80.7236H39.6729V116.115H49.425V100.165C49.425 96.7431 50.1916 93.9938 51.7248 91.9173C53.2581 89.8408 55.6968 88.8026 59.0382 88.8026C59.6326 88.8026 60.2631 88.8358 60.927 88.905C61.5908 88.9743 62.1296 89.0545 62.5435 89.1431V80.1062C61.8547 79.8792 61.1464 79.7657 60.4131 79.7657C58.0327 79.7657 55.7662 80.4745 53.6136 81.8865C51.461 83.304 49.95 85.1064 49.0806 87.2964H48.9445V80.7236Z" fill="#2B2C2D"/>
<path d="M96.949 87.0894C101.115 87.0894 103.518 89.1216 104.16 93.1833H113.706C113.431 88.8946 111.704 85.5833 108.52 83.2576C105.337 80.9292 101.504 79.7663 97.0185 79.7663C94.177 79.7663 91.6244 80.2342 89.3579 81.17C87.0942 82.1058 85.1804 83.4403 83.625 85.1735C82.0668 86.9095 80.8891 88.95 80.0891 91.3006C79.2864 93.6512 78.8864 96.1956 78.8864 98.9338C78.8864 101.581 79.3086 104.012 80.1586 106.224C81.003 108.439 82.2279 110.355 83.8305 111.971C85.4332 113.594 87.3442 114.848 89.5662 115.737C91.7855 116.628 94.202 117.074 96.8102 117.074C101.527 117.074 105.407 115.82 108.451 113.309C111.498 110.8 113.315 107.218 113.912 102.561H104.504C104.182 104.798 103.357 106.556 102.032 107.835C100.704 109.111 98.9406 109.751 96.7435 109.751C95.2769 109.751 94.0187 109.422 92.966 108.757C91.9133 108.095 91.0773 107.229 90.4606 106.157C89.8412 105.083 89.3829 103.895 89.0829 102.597C88.7857 101.295 88.6385 99.961 88.6385 98.5905C88.6385 97.2228 88.7857 95.8633 89.0829 94.5178C89.3829 93.1722 89.8523 91.9401 90.4912 90.8216C91.1356 89.7031 92.005 88.8005 93.1021 88.1166C94.202 87.4328 95.4825 87.0894 96.949 87.0894Z" fill="#2B2C2D"/>
<path d="M117.62 116.116H127.372V80.7242H117.62V116.116Z" fill="#2B2C2D"/>
<path d="M117.62 75.2479H127.372V67.2381H117.62V75.2479Z" fill="#2B2C2D"/>
<path d="M142.273 80.7236H133.004V116.115H142.754V97.5627C142.754 93.9606 143.351 91.3692 144.54 89.7938C145.731 88.2212 147.656 87.4321 150.309 87.4321C152.553 87.4321 154.156 88.1409 155.119 89.5557C156.08 90.9705 156.558 93.1605 156.558 96.1257V116.115H166.31V94.3455C166.31 92.0198 166.116 89.9765 165.727 88.2212C165.338 86.4631 164.652 84.9569 163.666 83.7027C162.68 82.4485 161.344 81.4767 159.65 80.7928C157.955 80.1062 155.847 79.7657 153.331 79.7657C151.178 79.7657 149.131 80.2696 147.184 81.2718C145.237 82.2769 143.67 83.7359 142.481 85.6519H142.273V80.7236Z" fill="#2B2C2D"/>
<path fill-rule="evenodd" clip-rule="evenodd" d="M209.714 79.7659C204.173 79.7659 199.731 81.4659 196.39 84.8658C193.048 88.2657 191.376 92.7952 191.376 98.4544C191.376 104.066 193.048 108.577 196.39 111.974C199.731 115.374 204.173 117.074 209.714 117.074C215.297 117.074 219.763 115.374 223.104 111.974C226.446 108.577 228.118 104.066 228.118 98.4544C228.118 92.7952 226.446 88.2657 223.104 84.8658C219.763 81.4659 215.297 79.7659 209.714 79.7659ZM203.014 106.293C202.353 105.221 201.87 104.022 201.575 102.699C201.275 101.375 201.128 99.9607 201.128 98.4545C201.128 96.9484 201.275 95.5225 201.575 94.1742C201.87 92.8314 202.353 91.6187 203.014 90.5472C203.681 89.4757 204.572 88.6313 205.695 88.0139C206.817 87.3992 208.156 87.0891 209.714 87.0891C211.316 87.0891 212.677 87.3992 213.8 88.0139C214.922 88.6313 215.813 89.4757 216.477 90.5472C217.141 91.6187 217.622 92.8314 217.919 94.1742C218.216 95.5225 218.366 96.9484 218.366 98.4545C218.366 99.9607 218.216 101.375 217.919 102.699C217.622 104.022 217.141 105.221 216.477 106.293C215.813 107.364 214.922 108.209 213.8 108.823C212.677 109.441 211.316 109.751 209.714 109.751C208.156 109.751 206.817 109.441 205.695 108.823C204.572 108.209 203.681 107.364 203.014 106.293Z" fill="#2B2C2D"/>
<path d="M181.303 0.217941H240.487C246.177 0.217941 250.593 5.16841 249.935 10.8071L245.465 49.0782L243.245 67.4165C242.902 70.2522 239.266 71.2179 237.555 68.9277L229.77 58.5056H176.599C170.899 58.5056 166.478 53.5373 167.154 47.8899L171.858 8.58327C172.429 3.81092 176.486 0.217941 181.303 0.217941Z" fill="#FFE603"/>
<path d="M226.694 14.6033H193.019L192.148 22.1704H225.822L226.694 14.6033Z" fill="#03A9F4"/>
<path d="M223.773 37.4224H190.099L189.227 44.9896H222.901L223.773 37.4224Z" fill="#03A9F4"/>
<path d="M213.532 33.7692H190.665L191.537 26.202H214.404L213.532 33.7692Z" fill="#03A9F4"/>
<path fill-rule="evenodd" clip-rule="evenodd" d="M114.177 1.15854L104.047 58.6635H121.348L124.484 40.5468L131.404 34.0766L140.595 58.6635H158.004L144.596 22.7537L167.087 1.18621H149.138L127.728 21.9988L131.437 1.15854H114.177ZM31.0336 45.076C32.98 44.1414 34.8182 42.9552 36.5483 41.5174L38.4947 30.6258C31.2859 31.0572 26.0236 32.1715 22.7075 33.9688C19.3915 35.7661 17.7335 38.1744 17.7335 41.1939C17.7335 42.7755 18.2742 44.0695 19.3555 45.076C20.5089 46.0106 22.1669 46.4779 24.3295 46.4779C26.8526 46.4779 29.0873 46.0106 31.0336 45.076ZM16.0034 59.5262C13.6245 59.5262 11.4619 59.2027 9.51554 58.5557C7.56918 57.8368 5.87512 56.8303 4.43338 55.5362C3.06371 54.2422 1.9824 52.6965 1.18944 50.8992C0.396481 49.1019 0 47.1249 0 44.9682C0 37.5633 3.27998 31.9558 9.83993 28.1455C16.3999 24.3353 26.4921 22.1067 40.1166 21.4596L40.3329 20.0577C40.6933 17.901 40.3329 16.2116 39.2516 14.9894C38.1703 13.6953 36.0437 13.0483 32.8719 13.0483C30.2046 13.0483 27.249 13.5516 24.0051 14.558C20.8333 15.4926 17.7335 16.7507 14.7058 18.3323L8.86675 7.54861C10.2364 6.61402 11.8944 5.71538 13.8408 4.85268C15.7871 3.91809 17.9498 3.09134 20.3286 2.37242C22.7075 1.65351 25.2306 1.07838 27.8978 0.647024C30.6371 0.215676 33.4846 0 36.4402 0C41.0538 0 44.8023 0.575133 47.6858 1.7254C50.6414 2.87566 52.9122 4.49322 54.4981 6.57808C56.084 8.66293 57.0211 11.1432 57.3095 14.0189C57.5978 16.8945 57.4176 20.0937 56.7688 23.6164L52.9842 44.6447C52.6959 46.2263 52.4436 47.6282 52.2273 48.8503C52.0832 50.0006 51.975 51.1149 51.9029 52.1933C51.8308 53.2716 51.7948 54.3141 51.7948 55.3206C51.8669 56.327 51.975 57.4414 52.1192 58.6635H34.8182C34.674 57.2257 34.602 55.8597 34.602 54.5657C34.602 53.1998 34.7461 51.7619 35.0345 50.2522C32.0789 53.2716 28.9791 55.5722 25.7352 57.1538C22.5634 58.7354 19.3194 59.5262 16.0034 59.5262ZM80.1334 59.8497C72.7804 59.8497 66.8693 58.9511 62.3999 57.1538C58.0025 55.2846 54.5784 53.02 52.1274 50.36L60.9942 41.1939C63.1568 43.2787 65.8961 45.076 69.2121 46.5857C72.5281 48.0236 76.2406 48.7425 80.3496 48.7425C82.5843 48.7425 84.5667 48.3471 86.2968 47.5563C88.0269 46.6936 88.892 45.1479 88.892 42.9193C88.892 41.4095 88.1711 40.2233 86.7294 39.3606C85.3597 38.4979 83.5936 37.7071 81.4309 36.9882C79.3404 36.2693 77.0696 35.5504 74.6187 34.8315C72.1677 34.0407 69.8609 33.0342 67.6983 31.812C65.6077 30.5899 63.8416 29.0442 62.3999 27.175C61.0302 25.2339 60.3454 22.7537 60.3454 19.7342C60.3454 16.2115 60.9942 13.228 62.2917 10.7837C63.6614 8.26753 65.4275 6.21862 67.5901 4.637C69.7528 3.05539 72.1677 1.90513 74.8349 1.18621C77.5022 0.395402 80.1694 0 82.8366 0C89.3245 0 94.5508 0.754859 98.5156 2.26458C102.48 3.7743 105.869 5.71538 108.68 8.0878L100.57 17.7932C98.2633 15.924 95.7042 14.4502 92.8928 13.3718C90.1535 12.2216 87.1979 11.6464 84.0261 11.6464C82.0076 11.6464 80.3496 12.0778 79.052 12.9405C77.7545 13.7313 77.1057 15.0613 77.1057 16.9305C77.1057 18.4402 77.7905 19.6623 79.1602 20.5969C80.6019 21.4596 82.3681 22.2504 84.4586 22.9694C86.6212 23.6883 88.928 24.4072 91.379 25.1261C93.9021 25.845 96.2089 26.7796 98.2994 27.9299C100.462 29.0801 102.228 30.5899 103.598 32.459C105.04 34.2563 105.76 36.5928 105.76 39.4685C105.76 43.6382 104.895 47.053 103.165 49.713C101.507 52.373 99.3807 54.4579 96.7856 55.9676C94.2625 57.4773 91.4871 58.4838 88.4595 58.987C85.5039 59.5622 82.7285 59.8497 80.1334 59.8497Z" fill="#2B2C2D"/>
</svg>
